<svg width="19" height="18" viewBox="0 0 19 18" fill="none" xmlns="http://www.w3.org/2000/svg">
<g id="EnvelopeSimple">
<path id="Vector" d="M16.25 3.09375H2.75C2.52622 3.09375 2.31161 3.18264 2.15338 3.34088C1.99514 3.49911 1.90625 3.71372 1.90625 3.9375V13.5C1.90625 13.873 2.05441 14.2306 2.31813 14.4944C2.58185 14.7581 2.93954 14.9062 3.3125 14.9062H15.6875C16.0605 14.9062 16.4181 14.7581 16.6819 14.4944C16.9456 14.2306 17.0938 13.873 17.0938 13.5V3.9375C17.0938 3.71372 17.0049 3.49911 16.8466 3.34088C16.6884 3.18264 16.4738 3.09375 16.25 3.09375ZM14.0809 4.78125L9.5 8.98031L4.91914 4.78125H14.0809ZM3.59375 13.2188V5.85562L8.92977 10.7473C9.08539 10.89 9.28886 10.9691 9.5 10.9691C9.71114 10.9691 9.91461 10.89 10.0702 10.7473L15.4062 5.85562V13.2188H3.59375Z" fill="white"/>
</g>
</svg>
