<svg width="24" height="24" viewBox="0 0 24 24" fill="none" xmlns="http://www.w3.org/2000/svg">
<g id="TwitterLogo">
<path id="Vector" d="M23.5397 6.31963C23.4546 6.11397 23.3103 5.93819 23.1252 5.81453C22.9402 5.69088 22.7226 5.62489 22.5 5.62494H19.8581C19.4141 4.94146 18.8079 4.37838 18.0936 3.98582C17.3794 3.59326 16.5791 3.38341 15.7641 3.37494C15.1282 3.3664 14.497 3.48518 13.9077 3.72427C13.3185 3.96336 12.783 4.31794 12.3328 4.76713C11.8699 5.22115 11.5025 5.76316 11.2521 6.36127C11.0017 6.95939 10.8735 7.60154 10.875 8.24994V8.32307C7.42219 7.23838 4.65188 4.48869 4.62188 4.45775C4.47093 4.30563 4.27967 4.19979 4.0706 4.15268C3.86154 4.10558 3.64337 4.11916 3.44176 4.19185C3.24016 4.26453 3.06351 4.39329 2.9326 4.56296C2.80169 4.73264 2.72197 4.93618 2.70282 5.14963C2.11125 11.7281 5.01375 15.2549 6.64594 16.6921C5.2875 18.0778 3.375 18.8137 3.35625 18.8212C3.19724 18.8804 3.05367 18.9748 2.9363 19.0973C2.81893 19.2198 2.7308 19.3673 2.6785 19.5287C2.6262 19.6902 2.61108 19.8613 2.63429 20.0294C2.6575 20.1975 2.71842 20.3581 2.8125 20.4993C3 20.7703 4.0725 22.1249 7.5 22.1249C14.2734 22.1249 19.9406 16.9443 20.5875 10.2534L23.295 7.54588C23.4525 7.38862 23.5599 7.18816 23.6034 6.96988C23.647 6.7516 23.6248 6.5253 23.5397 6.31963ZM18.705 8.95494C18.5111 9.14804 18.3947 9.40554 18.3778 9.67869C18.0131 15.3965 13.2356 19.8749 7.5 19.8749C7.10845 19.8772 6.71721 19.8525 6.32907 19.8009C7.3125 19.1765 8.41125 18.2878 9.1875 17.1243C9.27242 16.997 9.33045 16.8536 9.35804 16.703C9.38564 16.5525 9.38222 16.3979 9.34799 16.2487C9.31376 16.0995 9.24945 15.9588 9.15899 15.8354C9.06852 15.7119 8.95381 15.6082 8.82188 15.5306C8.81063 15.524 7.66594 14.8284 6.62532 13.2412C5.58469 11.654 5.00719 9.77244 4.89469 7.63682C6.50344 8.84994 9 10.3865 11.8125 10.8599C11.9739 10.8872 12.1393 10.879 12.2971 10.8357C12.455 10.7925 12.6015 10.7154 12.7265 10.6097C12.8514 10.504 12.9518 10.3723 13.0207 10.2238C13.0895 10.0753 13.1251 9.91361 13.125 9.74994V8.24994C13.1242 7.89957 13.1935 7.55258 13.329 7.22943C13.4644 6.90628 13.6631 6.61351 13.9134 6.36838C14.1525 6.12922 14.437 5.94026 14.7501 5.81259C15.0632 5.68493 15.3987 5.62112 15.7369 5.62494C16.2481 5.63179 16.7469 5.78349 17.1754 6.06244C17.6038 6.34139 17.9444 6.73615 18.1575 7.20088C18.2452 7.40135 18.3895 7.5719 18.5727 7.69162C18.7558 7.81135 18.9699 7.87505 19.1888 7.87494H19.7813L18.705 8.95494Z" fill="#737272"/>
</g>
</svg>
